# xmcd
#
# Track frame offsets:
#	150
#	10615
#	22462
#	31282
#	40185
#	47930
#	59157
#	71492
#	84460
#	95102
#	102097
#	110802
#	123665
#	133215
#	145442
#	155197
#	164735
#	174687
#	187340
#	198917
#
# Disc length: 2778 seconds
#
# Revision: 0
# Processed by: cddbd v1.5.1PL0 Copyright (c) Steve Scherf et al.
# Submitted via: dBpowerAMP V4.0
#
DISCID=3f0ad814
DTITLE=Creone e Barrerito - Raízes Sertanejas
DYEAR=1900
DGENRE=Sertanejo
TTITLE0=VIDA PERDIDA
TTITLE1=BRIGUINHAS DE AMOR
TTITLE2=A VOLTA DA MADALENA
TTITLE3=ESTRADA DA VIDA
TTITLE4=GOTA DE ORVALHO
TTITLE5=CARTAS NA MESA
TTITLE6=REI DO MUNDO
TTITLE7=ALMA VENCIDA
TTITLE8=GALO VELHO
TTITLE9=NA BEIRA DO CAIS
TTITLE10=ENXUGUE O PRANTO
TTITLE11=FILHO DE PAI JOÃO
TTITLE12=APRENDI AMAR
TTITLE13=MENINO DEUS
TTITLE14=RODA PIÃO
TTITLE15=MORRENDO DE PAIXÃO
TTITLE16=MENSAGEM AO MUNDO
TTITLE17=FAZENDEIRO AFAMADO
TTITLE18=LAGOA VERMELHA
TTITLE19=MININA LINDA
EXTD=Gravações originais remasterizadas
EXTT0=
EXTT1=
EXTT2=
EXTT3=
EXTT4=
EXTT5=
EXTT6=
EXTT7=
EXTT8=
EXTT9=
EXTT10=
EXTT11=
EXTT12=
EXTT13=
EXTT14=
EXTT15=
EXTT16=
EXTT17=
EXTT18=
EXTT19=
PLAYORDER=
